<svg width="40" height="34" viewBox="0 0 40 34" fill="none" xmlns="http://www.w3.org/2000/svg">
<path d="M39.4054 13.802L22.0591 0.625467C20.8916 -0.208489 19.2237 -0.208489 17.8893 0.625467L0.709827 13.802C-0.624503 14.8027 0.0426621 16.6374 1.71058 16.6374H3.37849V26.8117C3.37849 30.3143 6.38073 33.3166 10.0501 33.3166H13.386C14.3867 33.3166 15.0539 32.6494 15.0539 31.6487V23.4759C15.0539 21.6412 16.555 19.9733 18.3897 19.9733H21.7255C23.5602 19.9733 25.0614 21.6412 25.0614 23.4759V31.6487C25.0614 32.4826 25.7285 33.3166 26.7293 33.3166H30.0651C33.7345 33.3166 36.7368 30.3143 36.7368 26.8117V16.6374H38.4047C39.9058 16.6374 40.573 14.8027 39.4054 13.802Z" fill="#BDBDBD"/>
</svg>
