<svg width="35" height="40" viewBox="0 0 35 40" fill="none" xmlns="http://www.w3.org/2000/svg">
<path d="M35 26.25V3.75C35 1.67891 33.3203 0 31.25 0H7.5C3.35781 0 0 3.35781 0 7.5V32.5C0 36.6422 3.35781 40 7.5 40H32.5C33.8805 40 35 38.8805 35 37.5703C35 36.6547 34.4838 35.8891 33.75 35.4531V29.0969C34.5156 28.3438 35 27.3594 35 26.25ZM11.1797 10H26.1797C26.9375 10 27.5 10.5625 27.5 11.25C27.5 11.9375 26.9375 12.5 26.25 12.5H11.1797C10.5625 12.5 10 11.9375 10 11.25C10 10.5625 10.5625 10 11.1797 10ZM11.1797 15H26.1797C26.9375 15 27.5 15.5625 27.5 16.25C27.5 16.9375 26.9375 17.5 26.25 17.5H11.1797C10.5625 17.5 10 16.9375 10 16.25C10 15.5625 10.5625 15 11.1797 15ZM30 35H7.5C6.11953 35 5 33.8805 5 32.5C5 31.1195 6.11953 30 7.5 30H30V35Z" fill="#BDBDBD"/>
</svg>
