<svg width="39" height="40" viewBox="0 0 39 40" fill="none" xmlns="http://www.w3.org/2000/svg">
<path d="M34.3143 21.95C34.3943 21.31 34.4543 20.66 34.4543 20C34.4543 19.34 34.3943 18.69 34.3143 18.05L38.5443 14.74C38.9243 14.44 39.0343 13.9 38.7843 13.46L34.7843 6.53C34.5343 6.1 34.0143 5.92 33.5643 6.1L28.5842 8.11C27.5542 7.32 26.4242 6.65 25.2042 6.14L24.4542 0.84C24.3642 0.37 23.9542 0 23.4542 0H15.4542C14.9542 0 14.5442 0.37 14.4642 0.84L13.7142 6.14C12.4942 6.65 11.3642 7.31 10.3342 8.11L5.35425 6.1C4.90425 5.93 4.38425 6.1 4.13425 6.53L0.134245 13.46C-0.115755 13.89 -0.00575489 14.43 0.374245 14.74L4.59425 18.05C4.51425 18.69 4.45425 19.34 4.45425 20C4.45425 20.66 4.51425 21.31 4.59425 21.95L0.374245 25.26C-0.00575489 25.56 -0.115755 26.1 0.134245 26.54L4.13425 33.47C4.38425 33.9 4.90425 34.08 5.35425 33.9L10.3342 31.89C11.3642 32.68 12.4942 33.35 13.7142 33.86L14.4642 39.16C14.5442 39.63 14.9542 40 15.4542 40H23.4542C23.9542 40 24.3642 39.63 24.4442 39.16L25.1942 33.86C26.4142 33.35 27.5442 32.69 28.5742 31.89L33.5542 33.9C34.0042 34.07 34.5243 33.9 34.7743 33.47L38.7743 26.54C39.0243 26.11 38.9143 25.57 38.5343 25.26L34.3143 21.95ZM19.4542 27C15.5842 27 12.4542 23.87 12.4542 20C12.4542 16.13 15.5842 13 19.4542 13C23.3242 13 26.4542 16.13 26.4542 20C26.4542 23.87 23.3242 27 19.4542 27Z" fill="#BDBDBD"/>
</svg>
